<svg id="visual" viewBox="0 0 900 600" width="900" height="600" xmlns="http://www.w3.org/2000/svg" xmlns:xlink="http://www.w3.org/1999/xlink" version="1.1"><path d="M0 37L82 67L164 49L245 97L327 97L409 85L491 67L573 67L655 79L736 43L818 61L900 49L900 0L818 0L736 0L655 0L573 0L491 0L409 0L327 0L245 0L164 0L82 0L0 0Z" fill="#00cc8e"></path><path d="M0 241L82 229L164 283L245 343L327 199L409 319L491 175L573 229L655 217L736 175L818 259L900 145L900 47L818 59L736 41L655 77L573 65L491 65L409 83L327 95L245 95L164 47L82 65L0 35Z" fill="#00b98a"></path><path d="M0 367L82 295L164 331L245 427L327 271L409 403L491 265L573 319L655 337L736 289L818 385L900 247L900 143L818 257L736 173L655 215L573 227L491 173L409 317L327 197L245 341L164 281L82 227L0 239Z" fill="#00a784"></path><path d="M0 475L82 523L164 445L245 541L327 523L409 493L491 487L573 451L655 457L736 547L818 499L900 457L900 245L818 383L736 287L655 335L573 317L491 263L409 401L327 269L245 425L164 329L82 293L0 365Z" fill="#00957c"></path><path d="M0 601L82 601L164 601L245 601L327 601L409 601L491 601L573 601L655 601L736 601L818 601L900 601L900 455L818 497L736 545L655 455L573 449L491 485L409 491L327 521L245 539L164 443L82 521L0 473Z" fill="#038373"></path></svg>